<svg width="378" height="70" viewBox="0 0 378 70" fill="none" xmlns="http://www.w3.org/2000/svg">
<path fill-rule="evenodd" clip-rule="evenodd" d="M17.0747 52.1717H2V3.40882H15.1904L17.0747 9.89743C17.5694 9.10305 18.1493 8.36404 18.8043 7.69327C19.441 7.03261 20.1776 6.38047 21.014 5.73685C21.5382 5.33512 22.0767 4.95211 22.6286 4.58856C24.4541 3.39846 26.5174 2.61308 28.6773 2.28609C29.7598 2.11387 30.8547 2.02904 31.9511 2.03244C33.2046 2.0269 34.457 2.1087 35.6989 2.27724C36.9763 2.45617 38.1416 2.73472 39.1949 3.1129C39.9338 3.37425 40.6463 3.70373 41.3232 4.097C43.4953 5.37564 45.2169 7.28717 46.2532 9.57103C46.3501 9.77607 46.4424 9.98324 46.5299 10.1924C48.4473 7.50516 50.8771 5.47337 53.8193 4.097C56.7153 2.75364 59.8712 2.05021 63.0685 2.03539C63.1756 2.03374 63.2827 2.03275 63.3898 2.03244C64.9288 2.02189 66.4657 2.14624 67.9826 2.40406C69.6071 2.69245 71.0448 3.14927 72.2958 3.77454C73.9436 4.57435 75.352 5.7869 76.3818 7.29215C77.3671 8.7803 78.1235 10.4055 78.6262 12.1144C79.0956 13.6435 79.4404 15.3354 79.6606 17.1902C79.8616 18.9468 79.9589 20.7136 79.9521 22.4814V52.1717H64.8774V26.2173C64.8774 23.9233 64.7452 21.826 64.4807 19.9253C64.3847 19.2027 64.2119 18.4922 63.965 17.8057C63.644 16.9002 63.1451 16.0669 62.4972 15.3538C61.7091 14.4998 60.5355 13.9636 58.9765 13.7454C58.4013 13.668 57.8213 13.6305 57.2409 13.6333C56.3611 13.6249 55.484 13.73 54.6316 13.9459C52.9623 14.356 51.5168 15.3885 50.5961 16.8284C49.2652 18.8707 48.5723 21.8915 48.5174 25.8909C48.5149 26.0652 48.5136 26.2395 48.5134 26.4139V52.1717H33.3395V26.2173C33.3395 23.9233 33.2238 21.826 32.9924 19.9253C32.9117 19.227 32.7598 18.5386 32.5392 17.8706C32.2403 16.9838 31.8205 16.2117 31.2797 15.5543C31.2238 15.4863 31.1666 15.4195 31.1081 15.3538C30.6116 14.8127 29.9902 14.3992 29.2971 14.1485C28.4012 13.805 27.3024 13.6333 26.0005 13.6333C25.1012 13.6244 24.2048 13.7341 23.3347 13.9597C21.6166 14.3972 20.1369 15.4785 19.207 16.9759C18.6449 17.8797 18.2111 18.856 17.9177 19.8771C17.3557 21.7529 17.0747 24.0301 17.0747 26.7088V52.1717ZM160.285 52.1717H145.21V3.40882H158.4L160.285 9.89743C160.779 9.10305 161.359 8.36404 162.014 7.69327C162.651 7.03261 163.387 6.38047 164.224 5.73685C164.748 5.33512 165.286 4.95211 165.838 4.58856C167.664 3.39846 169.727 2.61308 171.887 2.28609C172.97 2.11387 174.064 2.02904 175.161 2.03244C176.414 2.0269 177.667 2.1087 178.909 2.27724C180.186 2.45617 181.351 2.73472 182.405 3.1129C183.144 3.37425 183.856 3.70373 184.533 4.097C186.705 5.37564 188.427 7.28717 189.463 9.57103C189.56 9.77607 189.652 9.98324 189.74 10.1924C191.657 7.50516 194.087 5.47337 197.029 4.097C199.925 2.75364 203.081 2.05021 206.278 2.03539C206.385 2.03374 206.492 2.03275 206.6 2.03244C208.139 2.02189 209.676 2.14624 211.192 2.40406C212.817 2.69245 214.255 3.14927 215.506 3.77454C217.153 4.57435 218.562 5.7869 219.592 7.29215C220.577 8.7803 221.333 10.4055 221.836 12.1144C222.305 13.6435 222.65 15.3354 222.87 17.1902C223.071 18.9468 223.169 20.7136 223.162 22.4814V52.1717H208.087V26.2173C208.087 23.9233 207.955 21.826 207.691 19.9253C207.595 19.2027 207.422 18.4922 207.175 17.8057C206.854 16.9002 206.355 16.0669 205.707 15.3538C204.919 14.4998 203.745 13.9636 202.186 13.7454C201.611 13.668 201.031 13.6305 200.451 13.6333C199.571 13.6249 198.694 13.73 197.841 13.9459C196.172 14.356 194.727 15.3885 193.806 16.8284C192.475 18.8707 191.782 21.8915 191.727 25.8909C191.725 26.0652 191.723 26.2395 191.723 26.4139V52.1717H176.549V26.2173C176.549 23.9233 176.434 21.826 176.202 19.9253C176.121 19.227 175.97 18.5386 175.749 17.8706C175.45 16.9838 175.03 16.2117 174.489 15.5543C174.434 15.4863 174.376 15.4195 174.318 15.3538C173.821 14.8127 173.2 14.3992 172.507 14.1485C171.611 13.805 170.512 13.6333 169.21 13.6333C168.311 13.6244 167.415 13.7341 166.544 13.9597C164.826 14.3972 163.347 15.4785 162.417 16.9759C161.855 17.8797 161.421 18.856 161.127 19.8771C160.565 21.7529 160.285 24.0301 160.285 26.7088V52.1717ZM334.933 68H330.073V57.1856H333.049C335.297 57.1856 336.983 57.0873 338.107 56.8907C338.552 56.8166 338.985 56.6833 339.394 56.4945C339.912 56.254 340.37 55.9024 340.735 55.4652C340.949 55.2031 341.142 54.9235 341.309 54.6295C341.662 54.0206 341.998 53.2574 342.316 52.3398C342.369 52.186 342.42 52.0317 342.47 51.8768L323.627 3.40882H339.793L349.413 33.8856L358.834 3.40882H375L356.157 52.1717C355.692 53.3861 355.195 54.5876 354.664 55.7749C354.117 56.992 353.568 58.1016 353.018 59.1037C352.512 60.0347 351.954 60.9369 351.347 61.8063C350.347 63.2514 349.067 64.4846 347.581 65.434C346.815 65.9156 346 66.3144 345.148 66.6236C344.202 66.9618 343.229 67.2242 342.24 67.4082C340.189 67.8027 337.754 68 334.933 68ZM138.069 31.5261H101.672C101.747 32.6188 101.958 33.698 102.301 34.739C102.875 36.5146 103.989 38.0709 105.49 39.1945C107.771 40.8986 110.3 41.7506 113.077 41.7506C114.025 41.7546 114.972 41.6899 115.91 41.5569C116.922 41.4088 117.856 41.1765 118.714 40.8599C118.836 40.8147 118.957 40.7675 119.077 40.7183C119.72 40.4597 120.341 40.1513 120.936 39.7962C121.757 39.2994 122.443 38.7383 122.994 38.1131L134.995 42.4388C133.402 44.7861 131.409 46.8404 129.106 48.5096C127.92 49.3579 126.653 50.0905 125.325 50.697C122.076 52.2115 118.566 53.0983 114.982 53.3102C114.48 53.3378 113.977 53.3516 113.474 53.3515C108.184 53.3515 103.506 52.3192 99.4402 50.2546C95.374 48.1901 92.2003 45.2243 89.9193 41.3574C87.6383 37.4904 86.4977 32.8697 86.4977 27.4953C86.4817 25.1412 86.7626 22.7943 87.3338 20.5093C87.9127 18.2169 88.8521 16.0292 90.1177 14.0265C92.5309 10.2251 95.7376 7.27577 99.7377 5.17844C103.738 3.08111 108.118 2.03244 112.878 2.03244C115.199 2.01699 117.513 2.27808 119.77 2.81009C122.275 3.4031 124.657 4.42051 126.813 5.81747C130.639 8.32277 133.654 11.8696 135.497 16.0321C135.528 16.1008 135.559 16.1696 135.59 16.2386C137.573 20.6626 138.4 25.7585 138.069 31.5261ZM304.189 52.1717H289.114V3.40882H301.015L303.693 12.3552C304.162 11.1201 304.738 9.92769 305.415 8.79141C306.676 6.70654 308.185 5.14173 309.941 4.097C311.541 3.15903 313.306 2.53145 315.142 2.24775C316.151 2.08258 317.212 2 318.325 2C318.737 2.00007 319.149 2.01089 319.561 2.03244V16.9759C319.278 16.9292 318.994 16.8873 318.71 16.8501C318.429 16.8127 318.163 16.7832 317.912 16.7616C317.768 16.7488 317.623 16.7383 317.478 16.7301C316.883 16.6974 316.222 16.681 315.495 16.681C312.939 16.681 310.8 17.1018 309.078 17.9433C308.368 18.2863 307.708 18.7214 307.114 19.2371C305.593 20.5669 304.665 22.5542 304.33 25.1988C304.233 25.9934 304.186 26.7932 304.189 27.5936V52.1717ZM255.791 53.3515C251.229 53.3515 246.964 52.4339 242.997 50.5987C239.03 48.7636 235.823 45.9289 233.377 42.0947C232.034 39.9525 231.066 37.6004 230.514 35.1381C230.06 33.2014 229.798 31.1086 229.727 28.8599C229.714 28.4379 229.707 28.0158 229.708 27.5936C229.696 25.5257 229.868 23.4607 230.221 21.4226C230.633 19.1267 231.292 17.0467 232.199 15.1827C232.548 14.4628 232.942 13.7648 233.377 13.0926C235.823 9.32394 239.03 6.53842 242.997 4.73603C246.964 2.93364 251.229 2.03244 255.791 2.03244C260.287 2.03244 264.518 2.93364 268.485 4.73603C272.452 6.53842 275.659 9.32394 278.105 13.0926C280.288 16.4555 281.497 20.6666 281.732 25.7257C281.761 26.3479 281.775 26.9708 281.775 27.5936C281.786 29.6519 281.613 31.7071 281.259 33.7352C280.686 36.912 279.635 39.6985 278.105 42.0947C275.659 45.9289 272.452 48.7636 268.485 50.5987C264.518 52.4339 260.287 53.3515 255.791 53.3515ZM255.791 41.7506C257.263 41.7691 258.722 41.4776 260.072 40.8953C261.327 40.3317 262.452 39.5186 263.378 38.5063C264.166 37.6351 264.781 36.6245 265.192 35.5274C265.999 33.4734 266.403 30.8288 266.403 27.5936C266.403 23.1794 265.646 19.8964 264.131 17.7447C263.878 17.3823 263.592 17.0428 263.279 16.7301C262.079 15.508 260.591 14.6 258.95 14.0875C257.926 13.7802 256.861 13.6271 255.791 13.6333C254.403 13.6086 253.025 13.8618 251.738 14.3775C250.451 14.8932 249.282 15.6609 248.302 16.6348C248.269 16.6664 248.236 16.6982 248.204 16.7301C246.302 18.6164 245.268 21.8014 245.104 26.2851C245.088 26.7211 245.08 27.1574 245.08 27.5936C245.08 32.1698 245.901 35.5645 247.543 37.7778C247.732 38.0325 247.936 38.2758 248.154 38.5063C250.204 40.6692 252.749 41.7506 255.791 41.7506ZM101.672 22.678H124.085C124.074 21.6838 123.932 20.6954 123.663 19.7375C123.202 18.0693 122.201 16.5979 120.813 15.5504C118.944 14.1391 116.693 13.3137 114.347 13.1801C113.99 13.1546 113.633 13.1418 113.275 13.1417C111.518 13.1259 109.774 13.4492 108.141 14.0934C107.278 14.4404 106.455 14.8794 105.688 15.4029C103.53 16.8724 102.204 19.2128 101.708 22.4244C101.695 22.5088 101.683 22.5934 101.672 22.678Z" fill="white" stroke="#FDA214" stroke-width="4" stroke-linecap="round"/>
</svg>
